<svg id="Layer_1" data-name="Layer 1" xmlns="http://www.w3.org/2000/svg" xmlns:xlink="http://www.w3.org/1999/xlink" viewBox="0 0 262.55 343.28" width="406" height="306" class="illustration styles_illustrationTablet__1DWOa"><defs><linearGradient id="linear-gradient" x1="189.27" y1="14.6" x2="195.33" y2="34.21" gradientUnits="userSpaceOnUse"><stop offset="0.02" stop-color="#fff" stop-opacity="0"></stop><stop offset="0.39" stop-color="#fff" stop-opacity="0.39"></stop><stop offset="1" stop-color="#fff"></stop></linearGradient><linearGradient id="linear-gradient-2" x1="218.05" y1="119.91" x2="230.89" y2="116.34" xlink:href="#linear-gradient"></linearGradient><linearGradient id="linear-gradient-3" x1="134.13" y1="233.15" x2="209.01" y2="224.59" xlink:href="#linear-gradient"></linearGradient><linearGradient id="linear-gradient-4" x1="157.18" y1="148.76" x2="214.95" y2="148.76" xlink:href="#linear-gradient"></linearGradient><linearGradient id="linear-gradient-5" x1="118.1" y1="217.35" x2="194.05" y2="218.95" gradientUnits="userSpaceOnUse"><stop offset="0.01"></stop><stop offset="0.83" stop-opacity="0.07"></stop><stop offset="1" stop-opacity="0"></stop></linearGradient><linearGradient id="linear-gradient-6" x1="227.95" y1="117.4" x2="221.77" y2="140.93" xlink:href="#linear-gradient-5"></linearGradient><linearGradient id="linear-gradient-7" x1="229.92" y1="187.65" x2="216.13" y2="123.23" xlink:href="#linear-gradient-5"></linearGradient><linearGradient id="linear-gradient-8" x1="89.05" y1="143.82" x2="122.03" y2="147.39" xlink:href="#linear-gradient-5"></linearGradient><linearGradient id="linear-gradient-9" x1="159.03" y1="122.13" x2="189.42" y2="122.13" xlink:href="#linear-gradient"></linearGradient><linearGradient id="linear-gradient-10" x1="196.08" y1="94.81" x2="199.65" y2="85.3" xlink:href="#linear-gradient"></linearGradient><linearGradient id="linear-gradient-11" x1="174.24" y1="333.2" x2="208.77" y2="333.2" xlink:href="#linear-gradient-5"></linearGradient><linearGradient id="linear-gradient-12" x1="215.6" y1="333.56" x2="250.13" y2="333.56" xlink:href="#linear-gradient-5"></linearGradient><linearGradient id="linear-gradient-13" x1="225.35" y1="123.53" x2="225.14" y2="127.12" xlink:href="#linear-gradient"></linearGradient></defs><title>Nurses</title><path d="M320.55,320.16a47.58,47.58,0,0,1-3.75,4c-13.59,13-33.43,16.6-52.12,18.52a477,477,0,0,1-109.78-1.47h2.37c-2.32-.29-4.64-.73-6.93-1.22a115.18,115.18,0,0,1-42.7-18.58,95.09,95.09,0,0,1-16.27-14.72C76.27,289.42,68,265.7,71.51,243c2.92-19.1,13.54-36.16,18.25-54.89,9.55-38.06-6-79.58,6-117,2.83-8.84,7.13-17.14,11.41-25.39,2.68-5.15,5.42-10.4,9.6-14.44,4.69-4.53,10.85-7.19,16.85-9.76,23.36-10,47.6-20.11,73-19.62,14.05.26,27.9,3.83,40.91,9.13,9.39,3.83,18.5,8.64,26.11,15.36,17,15,24.82,38,26.87,60.57s-1,45.19-2.22,67.78c-.7,12.89-.77,26,2.63,38.47,3.84,14.09,11.91,26.57,18.54,39.57,7.44,14.57,13.24,30.33,13.82,46.68C333.74,294,329.72,309.06,320.55,320.16Z" transform="translate(-70.72 -1.92)" fill="#128a43" opacity="0.18" style="isolation: isolate;"></path><path d="M320.55,320.16a47.58,47.58,0,0,1-3.75,4c-12.56,12-30.48,16-47.88,18.05-1.42.17-2.83.32-4.24.47a477,477,0,0,1-109.78-1.47h2.37c-2.32-.29-4.64-.73-6.93-1.22-.88-.19-1.76-.39-2.63-.6a114.6,114.6,0,0,1-40.07-18c25.41-8.2,64.6-13.46,108.55-13.46C257.81,308,295.14,312.7,320.55,320.16Z" transform="translate(-70.72 -1.92)" fill="#128a43" opacity="0.54" style="isolation: isolate;"></path><path d="M269,341.51a6.23,6.23,0,0,1,0,.74c-1.42.17-2.83.32-4.24.47a477,477,0,0,1-109.78-1.47h2.37c-2.32-.29-4.64-.73-6.93-1.22-.88-.19-1.76-.39-2.63-.6,3.15-10.06,29-17.89,60.46-17.89C241.74,321.54,269,330.48,269,341.51Z" transform="translate(-70.72 -1.92)" fill="#128a43" opacity="0.54" style="isolation: isolate;"></path><path d="M182.25,44.83l-8.72-10.2s2.4-9.82,18.07-13.63a28.29,28.29,0,0,1,9.44-.63,44.27,44.27,0,0,1,12.89,3.09l-.13,11.69S185.26,36.73,182.25,44.83Z" transform="translate(-70.72 -1.92)" fill="#128a43"></path><path d="M182.25,44.83l-8.72-10.2s2.4-9.82,18.07-13.63a28.29,28.29,0,0,1,9.44-.63,44.27,44.27,0,0,1,12.89,3.09l-.13,11.69S185.26,36.73,182.25,44.83Z" transform="translate(-70.72 -1.92)" fill="url(#linear-gradient)"></path><path d="M182.25,44.83c-2.52-1.86-7.64-1.22-10.18-.2a12.9,12.9,0,0,0-7.57,8.53,15.5,15.5,0,0,0-.39,5.47c.37,4,2.11,8.12,5.39,10.52,6.86,5,11.09.36,13.13-5.89a23.38,23.38,0,0,0,1.21-11.08c-.37-2.82.92-5.06-1.27-7.08Z" transform="translate(-70.72 -1.92)" fill="#c47331"></path><ellipse cx="125.91" cy="54.44" rx="19.03" ry="23.74" fill="#c47331"></ellipse><path d="M216.53,51.55a82.87,82.87,0,0,1-.11,10.34,13.77,13.77,0,0,0,4.28,11.53,9.9,9.9,0,0,1-2.93-.09,3.29,3.29,0,0,1-2.3-1.68,6.28,6.28,0,0,0,4.42,3.09c-2,.87-7.31,2.73-7.67-.66-.13-1.3.41-2.81.51-4.11.14-1.77.17-3.56.26-5.33l.68-14.25" transform="translate(-70.72 -1.92)" fill="#c47331"></path><path d="M257,121.84s3.49-6.16,5-7.08c1.35-.83,4.19-3.46,5-2.88,1.4,1-4.66,6.41.75,6,.85-.07,5.19,0,7.28,2a4,4,0,0,1-.19,6c-1.42,1-6.29,1.41-8.92,1.33s-5.71.3-7.51,1.38" transform="translate(-70.72 -1.92)" fill="#f6c8c9"></path><path d="M219.73,95.68s2.5,7.85,2.75,12.09,2.23,22.08,2.9,23,32.65-10,32.65-10,1.93,2.72.38,7.85c0,0-23.74,21.49-38.11,22.33s-12.53-33.2-12.53-33.2" transform="translate(-70.72 -1.92)" fill="#f6c8c9"></path><path d="M233.59,129.85a1.37,1.37,0,0,1,.08.89,1.33,1.33,0,0,1-.41.51l-5.49,4.94a4.65,4.65,0,0,1-2.28,1.36,3.09,3.09,0,0,1-2.6-1.06,9.18,9.18,0,0,1-1.52-2.47,41.74,41.74,0,0,1-2.48-6,34.46,34.46,0,0,1-1.22-9.66c0-3.78.17-7.55.43-11.32a12.61,12.61,0,0,1,.62-3.72,4.37,4.37,0,0,1,1.72-2.28c1.16-.57,1.37.11,1.95,1.11,1.22,2.11,2.32,4.27,3.34,6.47A136.22,136.22,0,0,1,231,122C231.88,124.62,232.74,127.23,233.59,129.85Z" transform="translate(-70.72 -1.92)" fill="#128a43"></path><path d="M233.41,129.14a1.42,1.42,0,0,1,.09.88,1.3,1.3,0,0,1-.42.51l-5.49,4.95a4.65,4.65,0,0,1-2.28,1.36,3.13,3.13,0,0,1-2.6-1.06,9.34,9.34,0,0,1-1.52-2.47,42.93,42.93,0,0,1-2.48-6,34.14,34.14,0,0,1-1.21-9.66c-.05-3.78.16-7.56.42-11.33a12.6,12.6,0,0,1,.62-3.71,4.37,4.37,0,0,1,1.72-2.28c1.16-.58,1.37.11,2,1.11,1.22,2.1,2.32,4.27,3.35,6.47a141.44,141.44,0,0,1,5.25,13.34C231.7,123.9,232.56,126.52,233.41,129.14Z" transform="translate(-70.72 -1.92)" fill="url(#linear-gradient-2)"></path><path d="M191.61,319.71,201.34,335c-1.56-.53-16.13-3.81-19.51-3.8a10.69,10.69,0,0,1-6.1-2.23l2.12-10.83,3.77-53.56,20.27,2.94Z" transform="translate(-70.72 -1.92)" fill="#f6c8c9"></path><path d="M230.69,319.3l9.15,13.77c-1.64-.13-12.65-2.56-15.92-1.7a10.74,10.74,0,0,1-6.47-.64l-.64-11-4.14-49.58,17.43-8.49Z" transform="translate(-70.72 -1.92)" fill="#f6c8c9"></path><path d="M189.2,72.19l-.82,17.24a9,9,0,0,0,8.22,3.86c8.31-.93,8-3.4,8-3.4s0-12.45.34-15.23" transform="translate(-70.72 -1.92)" fill="#f6c8c9"></path><path d="M191.18,77.8l-1.92-3.47,15.63,1.73c-.13,1.06-.21,3.53-.26,6.19A12.44,12.44,0,0,1,191.18,77.8Z" transform="translate(-70.72 -1.92)" fill="#dcb5b0"></path><path d="M239.61,262.35c-10.46,13.79-39.4,11.65-55.46,10.19-2.72-.25-6.66,0-9.21-1-6.05-2.38-2.77-5.18-1.73-11.14,2.12-12.22-.08-24.73-.67-37-.23-5.05,2.07-23.68,3.65-35.07.74-5.33,1.32-9.08,1.41-9.13,3.85-2.07,13.54,5.28,17.86,5.09,1.85-.09,19.87-2.57,27.71-3.57a65.84,65.84,0,0,0,3.84,7.66,7.31,7.31,0,0,1,.53.9c.19,2.07.4,4.4.63,6.91C230.58,222.64,239.61,262.35,239.61,262.35Z" transform="translate(-70.72 -1.92)" fill="#128a43"></path><path d="M239.61,262.35c-9.75,12.85-35.55,11.86-52,10.49l-3.45-.3c-2.72-.25-6.66,0-9.21-1-6.05-2.38-2.77-5.18-1.73-11.14,2.12-12.22-.08-24.73-.67-37-.23-5.05,2.07-23.68,3.65-35.07.74-5.33,1.32-9.08,1.41-9.13,1.21-.66,3-.37,5,.31,4.4,1.5,9.88,4.91,12.84,4.78,1.85-.09,19.87-2.57,27.71-3.57a64.93,64.93,0,0,0,3.83,7.65h0a7.31,7.31,0,0,1,.53.9c.19,2.07.4,4.4.63,6.91C230.58,222.64,239.61,262.35,239.61,262.35Z" transform="translate(-70.72 -1.92)" fill="url(#linear-gradient-3)"></path><path d="M227,188.42s-6.38,16.89-24.28,18.71c-11.95,1.23-24.51-15.86-26.54-18.76l-.29-.42,0-2.59,1-59.91.55-32.72s2.25.1,11.22-1.55c8.42-1.54,11.55-.77,17.64.39,11.1,2.11,12.36,2.8,14,4.24,2.87,2.48,10,31.34-.06,55.09C216.13,160.74,227,188.42,227,188.42Z" transform="translate(-70.72 -1.92)" fill="#128a43"></path><path d="M227,188.42s-6.38,16.89-24.28,18.71c-6.7.69-13.58-4.37-18.7-9.47a74.06,74.06,0,0,1-7.84-9.29l-.29-.42,0-2.59.35-20.81.64-39.1.55-32.72s2.25.1,11.22-1.55c8.42-1.54,11.55-.77,17.64.39,11.1,2.11,12.36,2.8,14,4.24,2.87,2.48,10,31.34-.06,55.09-4.12,9.71,6.42,36.8,6.7,37.51Z" transform="translate(-70.72 -1.92)" fill="url(#linear-gradient-4)"></path><path d="M187.6,272.84l-3.45-.3c-2.72-.25-6.66,0-9.21-1-6.05-2.38-2.77-5.18-1.73-11.14,2.12-12.22-.08-24.73-.67-37-.23-5.05,2.07-23.68,3.65-35.07l-.29-.42,0-2.59.35-20.81,5.31,3.67,1,11.33L184.11,196s0,.59-.08,1.63c-.39,8.54-2,48.07,1.5,55.06C188.42,258.51,188,268.17,187.6,272.84Z" transform="translate(-70.72 -1.92)" fill="url(#linear-gradient-5)"></path><path d="M205.35,152.4l7.38-24.33A3.34,3.34,0,0,1,216,125.7l19.34.17a3.35,3.35,0,0,1,3.16,4.37l-11.87,37a3.35,3.35,0,0,1-3.28,2.33l-18.56-.52a3.35,3.35,0,0,1-3.11-4.31Z" transform="translate(-70.72 -1.92)" fill="#128a43"></path><path d="M205.35,152.4l7.38-24.33A3.34,3.34,0,0,1,216,125.7l19.34.17a3.35,3.35,0,0,1,3.16,4.37l-11.87,37a3.35,3.35,0,0,1-3.28,2.33l-18.56-.52a3.35,3.35,0,0,1-3.11-4.31Z" transform="translate(-70.72 -1.92)" fill="url(#linear-gradient-6)"></path><path d="M207.91,152.3l7.16-24.22a3.16,3.16,0,0,1,3-2.37l17.48.18a3.23,3.23,0,0,1,2.77,4.34L226.8,167.1a3.14,3.14,0,0,1-3,2.31L207,168.89a3.22,3.22,0,0,1-2.72-4.29Z" transform="translate(-70.72 -1.92)" fill="url(#linear-gradient-7)"></path><path d="M182.7,44.27s.69,22.08,7.11,29.63c6.77,8,10.63,9,18.84,5.69,7-2.78,7.82-21.91,8.06-27.41C217.32,37.89,195.41,25.58,182.7,44.27Z" transform="translate(-70.72 -1.92)" fill="#f6c8c9"></path><polygon points="118.2 117.64 105.22 183.44 106.21 123.54 106.88 107.88 118.2 117.64" fill="url(#linear-gradient-8)"></polygon><path d="M185.25,58.29s-.36-3.32-3.63-1.89-.2,7.24,1.08,8.81,3.72,1.09,3.72,1.09" transform="translate(-70.72 -1.92)" fill="#f6c8c9"></path><path d="M216.31,37.36a12.63,12.63,0,0,1,3.24,9.5c-.43,4.27-3.44,7.46-7.91,6.9,0,0,2.24-4.48-.63-6.66,0,0-.78,5.23-6.12,5.71l-3.44-.24s1.2-4.78,0-6.1-2.86,6.69-6,7.35a19.93,19.93,0,0,1-3.95.54c-.7.12-3.11-4.24-3.15-4.3a10.88,10.88,0,0,1,.32,2.42,28.59,28.59,0,0,1,.4,4.16c.1,3.4.11,6.8,0,10.2-.07,2.51-.22,5.11-1.4,7.33s-3.66,3.94-6.12,3.43c2.08-1.23,2.95-3.81,3.16-6.22a32.56,32.56,0,0,0-.64-9.31c-.45-2.46-.14-5.89-1.41-8.13-3.87-6.82-.06-15.3,6.55-18.55,7.18-3.54,17.56-5,24.55-.24A13.53,13.53,0,0,1,216.31,37.36Z" transform="translate(-70.72 -1.92)" fill="#c47331"></path><path d="M177.48,93.47s-3.93,5.43-10.92,27.45c-2.6,8.17-7.53,26.46-7.53,26.46s10.34,3.53,17.64,3.53c3.27-18.95,11.12-26.29,12.59-35S181.86,91.79,177.48,93.47Z" transform="translate(-70.72 -1.92)" fill="#128a43"></path><path d="M177.48,93.47s-3.93,5.43-10.92,27.45c-2.6,8.17-7.53,26.46-7.53,26.46s10.34,3.53,17.64,3.53c3.27-18.95,11.12-26.29,12.59-35S181.86,91.79,177.48,93.47Z" transform="translate(-70.72 -1.92)" fill="url(#linear-gradient-9)"></path><path d="M184.41,87.35l-.15,4a1.71,1.71,0,0,0,.92,1.57s6.34,2.14,17.3,2.72l8.06-2a1.71,1.71,0,0,0,1-1.44l.11-2a1.69,1.69,0,0,0-1.5-1.78l-23.85-2.7A1.7,1.7,0,0,0,184.41,87.35Z" transform="translate(-70.72 -1.92)" fill="#128a43"></path><path d="M184.41,87.35l-.15,4a1.71,1.71,0,0,0,.92,1.57s6.34,2.14,17.3,2.72l8.06-2a1.71,1.71,0,0,0,1-1.44l.11-2a1.69,1.69,0,0,0-1.5-1.78l-23.85-2.7A1.7,1.7,0,0,0,184.41,87.35Z" transform="translate(-70.72 -1.92)" fill="url(#linear-gradient-10)"></path><path d="M196.1,326.75a2.51,2.51,0,0,0-1.31-.38,2.7,2.7,0,0,0-1.29.61c-2.43,1.72-5.1,3.26-8.06,3.57s-6.23-.92-7.58-3.57c-.3-.6-.57-1.31-1.19-1.55a1.52,1.52,0,0,0-1.74.77,4.5,4.5,0,0,0-.45,2l-.16,2.6a9.9,9.9,0,0,0,.62,5.3c.84,1.6,3,2.66,4.51,1.72.88-.55,1.36-1.6,2.26-2.1a3.32,3.32,0,0,1,3.07.19,19.85,19.85,0,0,1,2.58,1.89c4.35,3.26,10.23,3.31,15.66,3.23a7.85,7.85,0,0,0,3.73-.67,4,4,0,0,0,2-4c-.37-2.39-3.09-3.5-4.85-4.78A54.12,54.12,0,0,0,196.1,326.75Z" transform="translate(-70.72 -1.92)" fill="#3f3d56"></path><path d="M237.46,327.1a2,2,0,0,0-2.6.24c-2.43,1.71-5.1,3.26-8.06,3.57s-6.23-.93-7.58-3.57c-.3-.6-.57-1.32-1.19-1.56a1.54,1.54,0,0,0-1.74.77,4.54,4.54,0,0,0-.45,2l-.16,2.59a9.92,9.92,0,0,0,.62,5.31c.84,1.6,3,2.66,4.51,1.71.88-.54,1.36-1.6,2.26-2.09a3.29,3.29,0,0,1,3.07.19,19.85,19.85,0,0,1,2.58,1.89c4.35,3.26,10.23,3.31,15.66,3.23a7.85,7.85,0,0,0,3.73-.67,4,4,0,0,0,2-4c-.37-2.4-3.09-3.5-4.85-4.79A56,56,0,0,0,237.46,327.1Z" transform="translate(-70.72 -1.92)" fill="#3f3d56"></path><path d="M196.1,326.75a2.51,2.51,0,0,0-1.31-.38,2.7,2.7,0,0,0-1.29.61c-2.43,1.72-5.1,3.26-8.06,3.57s-6.23-.92-7.58-3.57c-.3-.6-.57-1.31-1.19-1.55a1.52,1.52,0,0,0-1.74.77,4.5,4.5,0,0,0-.45,2l-.16,2.6a9.9,9.9,0,0,0,.62,5.3c.84,1.6,3,2.66,4.51,1.72.88-.55,1.36-1.6,2.26-2.1a3.32,3.32,0,0,1,3.07.19,19.85,19.85,0,0,1,2.58,1.89c4.35,3.26,10.23,3.31,15.66,3.23a7.85,7.85,0,0,0,3.73-.67,4,4,0,0,0,2-4c-.37-2.39-3.09-3.5-4.85-4.78A54.12,54.12,0,0,0,196.1,326.75Z" transform="translate(-70.72 -1.92)" fill="url(#linear-gradient-11)"></path><path d="M237.46,327.1a2,2,0,0,0-2.6.24c-2.43,1.71-5.1,3.26-8.06,3.57s-6.23-.93-7.58-3.57c-.3-.6-.57-1.32-1.19-1.56a1.54,1.54,0,0,0-1.74.77,4.54,4.54,0,0,0-.45,2l-.16,2.59a9.92,9.92,0,0,0,.62,5.31c.84,1.6,3,2.66,4.51,1.71.88-.54,1.36-1.6,2.26-2.09a3.29,3.29,0,0,1,3.07.19,19.85,19.85,0,0,1,2.58,1.89c4.35,3.26,10.23,3.31,15.66,3.23a7.85,7.85,0,0,0,3.73-.67,4,4,0,0,0,2-4c-.37-2.4-3.09-3.5-4.85-4.79A56,56,0,0,0,237.46,327.1Z" transform="translate(-70.72 -1.92)" fill="url(#linear-gradient-12)"></path><path d="M162.41,156.84c1.34,3.79,5,6.26,8.74,7.74,6.26,2.48,13.12,2.92,19.85,3.17q8.44.31,16.9.27a10.18,10.18,0,0,0,3.21-.35c2.12-.69,3.55-2.61,4.85-4.42s2.79-4.31,1.81-6.44-3.7-2.61-6-2.27-4.46,1.27-6.74,1.07l.28-3.21c-1-.63-2.15.4-3,1.14-3.65,3-9,1.92-13.59.67l-19.6-5.36c-2.18-.6-4.71-2.08-6.32,0C161.35,150.76,161.7,154.79,162.41,156.84Z" transform="translate(-70.72 -1.92)" fill="#f6c8c9"></path><path d="M219,125.81a3.72,3.72,0,0,1,1.6-2c1-.64,7-.63,10-.58,1,0,1.12,1.31.32,2.83l.13-.22Z" transform="translate(-70.72 -1.92)" fill="#128a43"></path><path d="M219,125.81a3.72,3.72,0,0,1,1.6-2c1-.64,7-.63,10-.58,1,0,1.12,1.31.32,2.83l.13-.22Z" transform="translate(-70.72 -1.92)" fill="url(#linear-gradient-13)"></path><polygon points="122.65 20.95 124.2 23.74 120.28 25.26 121.7 27.75 125.09 26.41 126.07 28.55 129.7 27.66 128.42 25.49 131.48 24.81 130.11 22.23 127.08 22.88 125.89 20.44 122.65 20.95" fill="#128a43"></polygon></svg>